<?xml version="1.0" encoding="UTF-8" standalone="no"?>
<!DOCTYPE svg PUBLIC "-//W3C//DTD SVG 1.1//EN" "http://www.w3.org/Graphics/SVG/1.1/DTD/svg11.dtd">
<svg width="100%" height="100%" viewBox="0 0 148 44" version="1.1" xmlns="http://www.w3.org/2000/svg" xmlns:xlink="http://www.w3.org/1999/xlink" xml:space="preserve" xmlns:serif="http://www.serif.com/" style="fill-rule:evenodd;clip-rule:evenodd;stroke-linejoin:round;stroke-miterlimit:2;">
    <g transform="matrix(1,0,0,1,-6015,-7472)">
        <g transform="matrix(0.693444,0,0,0.693444,3230.7,2290.67)">
            <path d="M4035.97,7534.19C4031.6,7534.19 4027.65,7533.44 4024.1,7531.94C4020.56,7530.43 4017.62,7528.27 4015.3,7525.43L4024.49,7514.54C4026.07,7516.58 4027.72,7518.13 4029.42,7519.18C4031.12,7520.23 4032.91,7520.75 4034.78,7520.75C4039.77,7520.75 4042.26,7517.86 4042.26,7512.08L4042.26,7486.48L4021.68,7486.48L4021.68,7473.46L4058.93,7473.46L4058.93,7511.06C4058.93,7518.82 4056.98,7524.62 4053.06,7528.45C4049.15,7532.28 4043.45,7534.19 4035.97,7534.19Z" style="fill:white;fill-rule:nonzero;"/>
            <path d="M4084.7,7534.19C4079.83,7534.19 4075.14,7533.58 4070.63,7532.36C4066.12,7531.14 4062.45,7529.57 4059.61,7527.64L4065.14,7515.22C4067.81,7516.93 4070.88,7518.33 4074.37,7519.43C4077.86,7520.54 4081.33,7521.09 4084.79,7521.09C4087.11,7521.09 4088.99,7520.88 4090.4,7520.45C4091.82,7520.03 4092.86,7519.46 4093.51,7518.75C4094.16,7518.04 4094.49,7517.21 4094.49,7516.24C4094.49,7514.88 4093.86,7513.81 4092.61,7513.01C4091.37,7512.22 4089.75,7511.57 4087.77,7511.06C4085.78,7510.55 4083.58,7510.03 4081.17,7509.53C4078.76,7509.01 4076.35,7508.36 4073.95,7507.57C4071.54,7506.78 4069.34,7505.74 4067.35,7504.46C4065.37,7503.19 4063.75,7501.52 4062.51,7499.45C4061.26,7497.38 4060.63,7494.75 4060.63,7491.58C4060.63,7488.01 4061.61,7484.77 4063.57,7481.88C4065.52,7478.99 4068.46,7476.66 4072.37,7474.91C4076.28,7473.15 4081.16,7472.27 4087,7472.27C4090.91,7472.27 4094.76,7472.71 4098.53,7473.59C4102.3,7474.47 4105.66,7475.76 4108.61,7477.46L4103.42,7489.96C4100.58,7488.43 4097.77,7487.28 4095,7486.52C4092.22,7485.75 4089.52,7485.37 4086.91,7485.37C4084.59,7485.37 4082.72,7485.61 4081.3,7486.09C4079.88,7486.57 4078.86,7487.21 4078.24,7488.01C4077.62,7488.8 4077.3,7489.71 4077.3,7490.73C4077.3,7492.03 4077.91,7493.07 4079.13,7493.83C4080.35,7494.6 4081.97,7495.22 4083.98,7495.7C4085.99,7496.19 4088.2,7496.68 4090.62,7497.19C4093.03,7497.7 4095.43,7498.34 4097.85,7499.11C4100.26,7499.87 4102.45,7500.89 4104.44,7502.17C4106.42,7503.44 4108.02,7505.12 4109.24,7507.19C4110.46,7509.26 4111.07,7511.85 4111.07,7514.97C4111.07,7518.43 4110.09,7521.62 4108.14,7524.54C4106.18,7527.46 4103.26,7529.8 4099.38,7531.55C4095.49,7533.31 4090.6,7534.19 4084.7,7534.19Z" style="fill:white;fill-rule:nonzero;"/>
            <path d="M4112.26,7533L4112.26,7473.46L4142.71,7473.46C4150.54,7473.46 4156.38,7474.89 4160.23,7477.76C4164.09,7480.62 4166.02,7484.38 4166.02,7489.03C4166.02,7492.09 4165.21,7494.77 4163.59,7497.06C4161.98,7499.36 4159.71,7501.18 4156.79,7502.51C4153.87,7503.84 4150.4,7504.51 4146.37,7504.51L4148.07,7500.42C4152.27,7500.42 4155.92,7501.06 4159.04,7502.34C4162.16,7503.61 4164.59,7505.46 4166.32,7507.87C4168.04,7510.28 4168.91,7513.21 4168.91,7516.67C4168.91,7521.83 4166.82,7525.84 4162.66,7528.7C4158.49,7531.57 4152.41,7533 4144.41,7533L4112.26,7533ZM4128.93,7520.84L4143.05,7520.84C4145.94,7520.84 4148.14,7520.34 4149.64,7519.35C4151.15,7518.36 4151.9,7516.84 4151.9,7514.8C4151.9,7512.76 4151.15,7511.24 4149.64,7510.25C4148.14,7509.26 4145.94,7508.76 4143.05,7508.76L4127.74,7508.76L4127.74,7497.11L4140.5,7497.11C4143.34,7497.11 4145.46,7496.62 4146.88,7495.66C4148.3,7494.7 4149.01,7493.25 4149.01,7491.32C4149.01,7489.4 4148.3,7487.96 4146.88,7487.03C4145.46,7486.09 4143.34,7485.62 4140.5,7485.62L4128.93,7485.62L4128.93,7520.84Z" style="fill:white;fill-rule:nonzero;"/>
            <path d="M4200.89,7534.19C4196.18,7534.19 4191.82,7533.44 4187.79,7531.94C4183.77,7530.43 4180.29,7528.29 4177.37,7525.52C4174.45,7522.74 4172.17,7519.46 4170.52,7515.69C4168.88,7511.92 4168.06,7507.77 4168.06,7503.23C4168.06,7498.69 4168.88,7494.54 4170.52,7490.77C4172.17,7487 4174.47,7483.73 4177.41,7480.95C4180.36,7478.17 4183.86,7476.03 4187.92,7474.52C4191.97,7473.02 4196.41,7472.27 4201.23,7472.27C4206.84,7472.27 4211.86,7473.21 4216.28,7475.08C4220.71,7476.95 4224.36,7479.64 4227.26,7483.16L4216.54,7492.85C4214.5,7490.64 4212.3,7488.98 4209.95,7487.88C4207.6,7486.77 4204.97,7486.22 4202.08,7486.22C4199.53,7486.22 4197.2,7486.62 4195.11,7487.41C4193.01,7488.2 4191.22,7489.35 4189.75,7490.86C4188.27,7492.36 4187.12,7494.14 4186.3,7496.21C4185.48,7498.28 4185.07,7500.62 4185.07,7503.23C4185.07,7505.73 4185.48,7508.02 4186.3,7510.12C4187.12,7512.22 4188.27,7514.02 4189.75,7515.52C4191.22,7517.02 4192.99,7518.19 4195.06,7519.01C4197.13,7519.83 4199.41,7520.24 4201.91,7520.24C4204.4,7520.24 4206.84,7519.83 4209.23,7519.01C4211.61,7518.19 4214.02,7516.78 4216.45,7514.8L4225.9,7526.62C4222.49,7529.06 4218.55,7530.93 4214.07,7532.24C4209.59,7533.54 4205.2,7534.19 4200.89,7534.19ZM4211.01,7524.41L4211.01,7501.95L4225.9,7501.95L4225.9,7526.62L4211.01,7524.41Z" style="fill:white;fill-rule:nonzero;"/>
        </g>
    </g>
</svg>
